<?xml version="1.0" encoding="utf-8"?>
<!-- Generator: Adobe Illustrator 18.0.0, SVG Export Plug-In . SVG Version: 6.00 Build 0)  -->
<!DOCTYPE svg PUBLIC "-//W3C//DTD SVG 1.1//EN" "http://www.w3.org/Graphics/SVG/1.1/DTD/svg11.dtd">
<svg version="1.1" id="Layer_1" xmlns="http://www.w3.org/2000/svg" xmlns:xlink="http://www.w3.org/1999/xlink" x="0px" y="0px"
	 viewBox="0 0 250 250" enable-background="new 0 0 250 250" xml:space="preserve">
<circle fill="#262626" cx="128" cy="117.7" r="65.5"/>
<g>
	<path fill="#01A6D2" d="M91.8,89.2h-4.6c-0.9,0-1.6,0.7-1.6,1.6v53c0,0.9,0.7,1.6,1.6,1.6h4.6c0.9,0,1.6-0.7,1.6-1.6V90.8
		C93.4,89.9,92.6,89.2,91.8,89.2"/>
	<path fill="#01A6D2" d="M146.9,123.7l-3.3,3.3c-0.6,0.6-0.6,1.7,0,2.3l19,19c0.6,0.6,1.7,0.6,2.3,0l3.3-3.3c0.6-0.6,0.6-1.7,0-2.3
		l-19-19C148.4,123,147.4,123,146.9,123.7"/>
	<path fill="#01A6D2" d="M144.5,138.9c-0.4-0.4-0.9-0.6-1.5-0.4c-2,0.6-4.2,0.9-6.5,0.9c-12.7,0-23.1-10.2-23.1-22.9
		s10.3-22.9,23.1-22.9c12.7,0,23.1,10.2,23.1,22.9c0,2.3-0.4,4.5-1,6.6c-0.2,0.6,0,1.1,0.4,1.6l3.9,3.9c0.7,0.7,2,0.6,2.4-0.5
		c1.5-3.6,2.3-7.6,2.3-11.6c0-17-13.9-30.8-31.2-30.8s-31.2,13.7-31.2,30.8c0,17,13.9,30.8,31.2,30.8c4,0,7.8-0.7,11.3-2.1
		c1-0.4,1.3-1.7,0.5-2.5L144.5,138.9z"/>
</g>
<g>
	<path fill="#FEFEFE" d="M45.1,87.5c1.6-4.4,3.6-8.7,5.9-12.8c0.4-0.7,0.8-1.3,1.1-2c-1.4-0.3-2.9-0.6-3-0.6c-0.3,0-0.7,0-1.2,0.6
		s-5.4,11-5.5,11.5c-0.1,0.4-0.1,1,0.2,1.4C42.8,85.9,44,86.7,45.1,87.5z"/>
	<path fill="#FEFEFE" d="M202.1,69.4c0,0.8-0.1,1.5,0,2.1c0.1,0.4,0.3,0.8,0.7,1.4l0.2,0.3c1.7,2.8,3.2,5.7,4.5,8.7
		c0.3,0.6,0.5,1.2,0.7,1.7c0.3,0.7,0.6,1.4,0.9,2c0.3,0.6,0.7,1.1,1.3,1.6c0.2,0.2,0.4,0.3,0.6,0.5c0.2,0.2,0.5,0.4,0.7,0.6l2.4-2.2
		c0.2-0.2,0.3-0.5,0.2-0.7c-1.1-4.8-6.8-14.1-8.1-16.2c-0.2-0.3-0.5-0.4-0.7-0.3L202.1,69.4C202.1,69.4,202.1,69.4,202.1,69.4z"/>
	<path fill="#FEFEFE" d="M40.2,109.2c-1.5,0.3-3.2,0.6-3.4,0.6c-0.2,0.1-0.7,0.2-0.9,1.2c-0.2,1-0.8,8.9,0,12.2
		c0.1,0.8,0.1,1.4,0.9,1.8c0.4,0.2,2,0.5,3.4,0.8C39.6,120.3,39.7,114.7,40.2,109.2z"/>
	<path fill="#FEFEFE" d="M212.5,149.1l-2.5-1.8c-1,2.7-2.1,5.3-3.3,7.9c-1.1,2.4-2.4,4.8-3.7,7l2.9,0.6c0.7,0.1,1.4-0.2,1.7-0.9
		l5.3-10.9C213.3,150.4,213.1,149.6,212.5,149.1z"/>
	<path fill="#FEFEFE" d="M49,156.9c-1.6-3.2-3-6.4-4.2-9.7c-1.5,1.2-3.3,2.5-3.4,2.6c-0.2,0.2-0.3,0.3,0,1.8
		c0.3,1.5,4.6,10.1,5.1,10.9s1.6,0.8,1.8,0.8c0.1,0,1.9-0.5,3.6-1C50.9,160.6,50,158.8,49,156.9z"/>
	<path fill="#FEFEFE" d="M213.4,94.7C213.4,94.7,213.4,94.7,213.4,94.7C213.4,94.7,213.4,94.7,213.4,94.7z"/>
	<path fill="#FEFEFE" d="M213.4,94.9c0,0.1,0.1,0.2,0.1,0.4c0,0,0,0,0,0C213.5,95.1,213.4,95,213.4,94.9z"/>
	<path fill="#FEFEFE" d="M180.4,26.4c-0.3-1.6-0.9-1.6-1.6-1.9c-0.7-0.2-7.1-1.9-8.1-2.2s-1.9-0.3-2.4,0c0-5.3-1.1-12.9-1.5-15.7
		c-0.5-2.8-3.1-2-5.3-2s-5.5-0.7-7.7-1.2c-2.2-0.5-5.2-0.9-6-1c-0.8,0-16-0.4-20.7-0.4c-4.8,0-19.9,0.3-20.7,0.4c-0.8,0-3.8,0.4-6,1
		c-2.2,0.5-5.5,1.2-7.7,1.2s-4.8-0.8-5.3,2C87,9.4,86,17.1,86,22.3c-0.5-0.3-1.4-0.3-2.4,0c-1,0.3-7.4,2-8.1,2.2
		c-0.7,0.2-1.3,0.3-1.6,1.9c-0.3,1.5-5.7,24.8-6.2,27.1c0.1-0.1,0.3-0.3,0.4-0.4c6.8-6.3,14.5-11.4,22.9-15.3
		c8.6-4,17.8-6.5,27.3-7.5c3-0.3,6.2-0.5,9.2-0.5c8,0,15.8,1.1,23.4,3.2c10.8,3,20.7,7.9,29.7,14.7c2,1.6,4,3.2,6,5
		C185.4,48.1,180.7,27.9,180.4,26.4z M111,4.5h34.6c0.7,0,1.4,0.6,1.4,1.4c0,0.7-0.6,1.4-1.4,1.4H111c-0.7,0-1.4-0.6-1.4-1.4
		C109.6,5.1,110.2,4.5,111,4.5z M145.2,14.3h-33.5c-1.2,0-2.1-0.9-2.1-2.1s0.9-2.1,2.1-2.1h33.5c1.2,0,2.1,0.9,2.1,2.1
		S146.4,14.3,145.2,14.3z"/>
	<path fill="#FEFEFE" d="M169.5,194.7c-8.3,4.5-17.2,7.7-26.4,9.3c-5.1,0.9-10.3,1.4-15.5,1.4c-4.5,0-9.1-0.4-13.5-1
		c-9.3-1.4-18.3-4.4-26.7-8.7c-7.4-3.8-14.1-8.6-20.1-14.3c1.3,5.2,5.9,26.4,6,26.9c0.1,0.5,0,1.5,1.4,1.9c1.4,0.4,6.8,2,7.5,2.2
		c0.7,0.2,2,0.5,2.3,0c0.1,5.6,1.3,25.6,1.8,29.4c0.2,1.3,0.7,2.2,2.2,2.2c1.6,0,3.6,0,4.5,0s3.8,0.3,5.7,0.8s2.7,0.8,3.1,0.9
		c0.4,0.1,0.7,0.4,2.3,0.5c1.6,0,23.2,0,23.2,0s21.6,0,23.2,0s1.9-0.3,2.3-0.5c0.4-0.1,1.2-0.3,3.1-0.9c1.9-0.5,4.8-0.8,5.7-0.8
		s2.9,0,4.5,0s2-0.9,2.2-2.2c0.5-3.8,1.7-23.8,1.8-29.4c0.3,0.5,1.6,0.2,2.3,0c0.7-0.2,6.2-1.8,7.5-2.2c1.4-0.4,1.3-1.4,1.4-1.9
		c0.1-0.5,4.3-19.9,5.8-26.1C181.7,187,175.8,191.2,169.5,194.7z M146.3,244.6h-36c-0.6,0-1.1-0.5-1.1-1.1s0.5-1.1,1.1-1.1h36
		c0.6,0,1.1,0.5,1.1,1.1S146.8,244.6,146.3,244.6z M144.7,240.3h-32.8c-1.5,0-2.7-1.2-2.7-2.7s1.2-2.7,2.7-2.7h32.8
		c1.5,0,2.7,1.2,2.7,2.7S146.1,240.3,144.7,240.3z M144.2,229.7h-31.4c-2,0-3.6-1.6-3.6-3.6c0-2,1.6-3.6,3.6-3.6h31.4
		c2,0,3.6,1.6,3.6,3.6C147.7,228.1,146.1,229.7,144.2,229.7z"/>
	<path fill="#FEFEFE" d="M214.1,98.4c0.1-1.1-0.3-2.1-0.6-3.2c0.1,0.5,0.2,0.6,0.2,0.6s-0.1-0.3-0.2-0.6c-0.7-2.7-2.9-4.1-4.9-5.7
		c-0.9-0.7-1.7-1.6-2.2-2.6c-0.6-1.2-1.1-2.6-1.6-3.8c-1.3-2.9-2.7-5.7-4.4-8.4c-0.5-0.8-1-1.6-1.2-2.5c-0.3-1.3-0.1-2.5-0.1-3.8
		c0.1-2.7-0.7-5.2-2.6-7.2c-1.6-1.6-3.7-2.3-5.9-2.6c-1-0.1-2-0.1-2.9-0.6c-1.1-0.6-2-1.7-3-2.6c-1.9-1.8-4-3.5-6.1-5.1
		c-8.5-6.5-18.3-11.3-28.6-14.2c-7.4-2-15-3.1-22.6-3.1c-3,0-5.9,0.2-8.9,0.5c-9.1,1-18,3.4-26.3,7.2c-8.1,3.7-15.6,8.7-22.1,14.7
		c-6.5,6-12.1,13.1-16.5,20.8c-4.4,7.9-7.6,16.5-9.3,25.4c-1.8,9.2-2,18.7-0.7,28c1.3,9,4,17.8,8.1,25.9c4,7.9,9.2,15.3,15.5,21.6
		c6.2,6.3,13.5,11.7,21.4,15.7c8.1,4.2,16.8,7,25.8,8.4c4.3,0.7,8.7,1,13.1,1c5,0,10-0.4,15-1.3c8.9-1.6,17.6-4.6,25.5-9
		c7.8-4.3,14.9-9.7,21-16.2c6.1-6.5,11.2-13.9,15-21.9c3.9-8.2,6.5-17.1,7.5-26.2c0.6-5.2,0.7-10.5,0.4-15.8
		c-0.1-1.6-0.3-3.1-0.4-4.7c-0.1-1.1,0-2.2,0.5-3.2C212.8,102.3,213.9,100.5,214.1,98.4z M70,62.9c2.7,0,4.9,2.2,4.9,4.9
		s-2.2,4.9-4.9,4.9s-4.9-2.2-4.9-4.9S67.3,62.9,70,62.9z M70,170.8c-2.7,0-4.9-2.2-4.9-4.9s2.2-4.9,4.9-4.9s4.9,2.2,4.9,4.9
		S72.8,170.8,70,170.8z M184.7,170.8c-2.7,0-4.9-2.2-4.9-4.9s2.2-4.9,4.9-4.9c2.7,0,4.9,2.2,4.9,4.9S187.4,170.8,184.7,170.8z
		 M128.5,183c-36.1,0-65.3-29.2-65.3-65.3c0-36.1,29.2-65.3,65.3-65.3c36.1,0,65.3,29.2,65.3,65.3C193.7,153.7,164.5,183,128.5,183z
		 M190.4,72.8c-2.7,0-4.9-2.2-4.9-4.9s2.2-4.9,4.9-4.9c2.7,0,4.9,2.2,4.9,4.9S193.1,72.8,190.4,72.8z M205,103
		c-2.7,0-4.9-2.2-4.9-4.9c0-2.7,2.2-4.9,4.9-4.9c2.7,0,4.9,2.2,4.9,4.9C209.9,100.8,207.7,103,205,103z"/>
</g>
</svg>
